<mxfile host="65bd71144e">
    <diagram id="a5_jY5r4BFfdTfNGkk73" name="Page-1">
        <mxGraphModel dx="280" dy="396" grid="1" gridSize="10" guides="1" tooltips="1" connect="1" arrows="1" fold="1" page="1" pageScale="1" pageWidth="1100" pageHeight="850" math="0" shadow="0">
            <root>
                <mxCell id="0"/>
                <mxCell id="1" parent="0"/>
                <mxCell id="fORnfv65RLHi70pDHR9z-1" style="edgeStyle=orthogonalEdgeStyle;rounded=0;jumpStyle=none;jumpSize=6;orthogonalLoop=1;jettySize=auto;html=1;startArrow=none;startFill=0;endArrow=classic;endFill=1;startSize=1;endSize=1;strokeColor=#000000;strokeWidth=4;entryX=0.5;entryY=0;entryDx=0;entryDy=0;" parent="1" source="fORnfv65RLHi70pDHR9z-2" target="fORnfv65RLHi70pDHR9z-6" edge="1">
                    <mxGeometry relative="1" as="geometry">
                        <mxPoint x="1690.66" y="805.8400000000001" as="targetPoint"/>
                        <Array as="points"/>
                    </mxGeometry>
                </mxCell>
                <mxCell id="fORnfv65RLHi70pDHR9z-2" value="" style="ellipse;whiteSpace=wrap;html=1;aspect=fixed;fillColor=#67AB9F;strokeWidth=4;strokeColor=#000000;" parent="1" vertex="1">
                    <mxGeometry x="1659.67" y="737.84" width="40" height="40" as="geometry"/>
                </mxCell>
                <mxCell id="fORnfv65RLHi70pDHR9z-3" value="" style="endArrow=none;html=1;rounded=0;strokeColor=#000000;strokeWidth=4;exitX=0;exitY=0;exitDx=0;exitDy=0;entryX=1;entryY=1;entryDx=0;entryDy=0;" parent="1" source="fORnfv65RLHi70pDHR9z-2" target="fORnfv65RLHi70pDHR9z-2" edge="1">
                    <mxGeometry width="50" height="50" relative="1" as="geometry">
                        <mxPoint x="1714.67" y="789.5900000000001" as="sourcePoint"/>
                        <mxPoint x="1739.67" y="758.3400000000001" as="targetPoint"/>
                    </mxGeometry>
                </mxCell>
                <mxCell id="fORnfv65RLHi70pDHR9z-4" value="" style="endArrow=none;html=1;rounded=0;strokeColor=#000000;strokeWidth=4;exitX=0;exitY=1;exitDx=0;exitDy=0;entryX=1;entryY=0;entryDx=0;entryDy=0;" parent="1" source="fORnfv65RLHi70pDHR9z-2" target="fORnfv65RLHi70pDHR9z-2" edge="1">
                    <mxGeometry width="50" height="50" relative="1" as="geometry">
                        <mxPoint x="1670.5278643762692" y="734.4123304703363" as="sourcePoint"/>
                        <mxPoint x="1698.981484117605" y="769.5534181196967" as="targetPoint"/>
                    </mxGeometry>
                </mxCell>
                <mxCell id="fORnfv65RLHi70pDHR9z-5" style="edgeStyle=orthogonalEdgeStyle;rounded=0;jumpStyle=none;jumpSize=6;orthogonalLoop=1;jettySize=auto;html=1;entryX=0;entryY=0.5;entryDx=0;entryDy=0;startArrow=none;startFill=0;endArrow=classic;endFill=1;startSize=1;endSize=1;strokeColor=#000000;strokeWidth=4;" parent="1" source="fORnfv65RLHi70pDHR9z-6" target="fORnfv65RLHi70pDHR9z-13" edge="1">
                    <mxGeometry relative="1" as="geometry"/>
                </mxCell>
                <mxCell id="fORnfv65RLHi70pDHR9z-6" value="" style="ellipse;whiteSpace=wrap;html=1;aspect=fixed;fillColor=#e1d5e7;strokeColor=#000000;strokeWidth=4;" parent="1" vertex="1">
                    <mxGeometry x="1659.67" y="875.8400000000001" width="40" height="40" as="geometry"/>
                </mxCell>
                <mxCell id="fORnfv65RLHi70pDHR9z-7" value="" style="endArrow=none;html=1;rounded=0;strokeColor=#000000;entryX=0.5;entryY=0;entryDx=0;entryDy=0;exitX=0.5;exitY=1;exitDx=0;exitDy=0;strokeWidth=4;" parent="1" source="fORnfv65RLHi70pDHR9z-6" target="fORnfv65RLHi70pDHR9z-6" edge="1">
                    <mxGeometry width="50" height="50" relative="1" as="geometry">
                        <mxPoint x="1659.67" y="830.3400000000001" as="sourcePoint"/>
                        <mxPoint x="1709.67" y="780.34" as="targetPoint"/>
                    </mxGeometry>
                </mxCell>
                <mxCell id="fORnfv65RLHi70pDHR9z-8" value="" style="endArrow=none;html=1;rounded=0;strokeColor=#000000;entryX=0;entryY=0.5;entryDx=0;entryDy=0;exitX=1;exitY=0.5;exitDx=0;exitDy=0;strokeWidth=4;" parent="1" source="fORnfv65RLHi70pDHR9z-6" target="fORnfv65RLHi70pDHR9z-6" edge="1">
                    <mxGeometry width="50" height="50" relative="1" as="geometry">
                        <mxPoint x="1709.67" y="730.34" as="sourcePoint"/>
                        <mxPoint x="1709.67" y="670.34" as="targetPoint"/>
                    </mxGeometry>
                </mxCell>
                <mxCell id="fORnfv65RLHi70pDHR9z-9" style="edgeStyle=orthogonalEdgeStyle;jumpStyle=none;jumpSize=6;orthogonalLoop=1;jettySize=auto;html=1;entryX=0;entryY=0.5;entryDx=0;entryDy=0;startArrow=none;startFill=0;endArrow=classic;endFill=1;startSize=1;endSize=1;strokeColor=#000000;strokeWidth=4;rounded=1;" parent="1" source="fORnfv65RLHi70pDHR9z-10" target="fORnfv65RLHi70pDHR9z-2" edge="1">
                    <mxGeometry relative="1" as="geometry">
                        <Array as="points">
                            <mxPoint x="1636" y="758"/>
                        </Array>
                    </mxGeometry>
                </mxCell>
                <mxCell id="fORnfv65RLHi70pDHR9z-10" value="" style="whiteSpace=wrap;html=1;aspect=fixed;fillColor=#dae8fc;strokeColor=#000000;strokeWidth=4;" parent="1" vertex="1">
                    <mxGeometry x="1622.17" y="777.8400000000001" width="27.5" height="27.5" as="geometry"/>
                </mxCell>
                <mxCell id="fORnfv65RLHi70pDHR9z-11" style="edgeStyle=orthogonalEdgeStyle;rounded=0;jumpStyle=none;jumpSize=6;orthogonalLoop=1;jettySize=auto;html=1;entryX=0.5;entryY=0;entryDx=0;entryDy=0;startArrow=none;startFill=0;endArrow=classic;endFill=1;startSize=1;endSize=1;strokeColor=#b85450;strokeWidth=4;fillColor=#f8cecc;" parent="1" target="fORnfv65RLHi70pDHR9z-2" edge="1">
                    <mxGeometry relative="1" as="geometry">
                        <mxPoint x="1679.2857142857147" y="645.8399999999997" as="sourcePoint"/>
                    </mxGeometry>
                </mxCell>
                <mxCell id="fORnfv65RLHi70pDHR9z-12" style="edgeStyle=orthogonalEdgeStyle;rounded=0;jumpStyle=none;jumpSize=6;orthogonalLoop=1;jettySize=auto;html=1;startArrow=none;startFill=0;endArrow=classic;endFill=1;startSize=1;endSize=1;strokeColor=#000000;strokeWidth=4;" parent="1" source="fORnfv65RLHi70pDHR9z-13" edge="1">
                    <mxGeometry relative="1" as="geometry">
                        <Array as="points">
                            <mxPoint x="1749.6" y="895.8400000000001"/>
                        </Array>
                        <mxPoint x="1880" y="896" as="targetPoint"/>
                    </mxGeometry>
                </mxCell>
                <mxCell id="fORnfv65RLHi70pDHR9z-13" value="" style="rounded=0;whiteSpace=wrap;html=1;glass=0;strokeColor=#000000;strokeWidth=4;fillColor=#FFD966;" parent="1" vertex="1">
                    <mxGeometry x="1719.6" y="877.5900000000001" width="20" height="36" as="geometry"/>
                </mxCell>
                <mxCell id="fORnfv65RLHi70pDHR9z-14" value="" style="endArrow=none;html=1;rounded=0;startSize=1;endSize=1;strokeColor=#000000;strokeWidth=4;jumpStyle=none;jumpSize=6;" parent="1" edge="1">
                    <mxGeometry width="50" height="50" relative="1" as="geometry">
                        <mxPoint x="1719.6000000000004" y="914.0900000000004" as="sourcePoint"/>
                        <mxPoint x="1729.6000000000004" y="903.590000000001" as="targetPoint"/>
                    </mxGeometry>
                </mxCell>
                <mxCell id="fORnfv65RLHi70pDHR9z-15" value="" style="endArrow=none;html=1;rounded=0;startSize=1;endSize=1;strokeColor=#000000;strokeWidth=4;jumpStyle=none;jumpSize=6;" parent="1" edge="1">
                    <mxGeometry width="50" height="50" relative="1" as="geometry">
                        <mxPoint x="1729.6000000000004" y="903.590000000001" as="sourcePoint"/>
                        <mxPoint x="1739.6000000000004" y="913.590000000001" as="targetPoint"/>
                    </mxGeometry>
                </mxCell>
                <mxCell id="fORnfv65RLHi70pDHR9z-16" value="F(0, t)" style="text;html=1;strokeColor=none;fillColor=none;align=center;verticalAlign=middle;whiteSpace=wrap;rounded=0;fontSize=24;fontColor=#0000FF;" parent="1" vertex="1">
                    <mxGeometry x="1529.27" y="480" width="190.33" height="30" as="geometry"/>
                </mxCell>
                <mxCell id="fORnfv65RLHi70pDHR9z-17" value="&lt;span style=&quot;color: rgb(0 , 0 , 0) ; font-size: 30px&quot;&gt;Δ&lt;/span&gt;&lt;font color=&quot;#000000&quot;&gt;₀&lt;/font&gt;" style="whiteSpace=wrap;html=1;aspect=fixed;fillColor=#FFD966;strokeColor=#000000;strokeWidth=4;fontColor=#ffffff;fontSize=30;" parent="1" vertex="1">
                    <mxGeometry x="1649.67" y="590" width="60" height="60" as="geometry"/>
                </mxCell>
                <mxCell id="fORnfv65RLHi70pDHR9z-18" style="edgeStyle=orthogonalEdgeStyle;rounded=0;jumpStyle=none;jumpSize=6;orthogonalLoop=1;jettySize=auto;html=1;entryX=0.5;entryY=0;entryDx=0;entryDy=0;startArrow=none;startFill=0;endArrow=classic;endFill=1;startSize=1;endSize=1;strokeColor=#0000FF;strokeWidth=4;fillColor=#d5e8d4;fontColor=#0000FF;" parent="1" edge="1">
                    <mxGeometry relative="1" as="geometry">
                        <mxPoint x="1679.9957142857147" y="497.9999999999993" as="sourcePoint"/>
                        <mxPoint x="1680.38" y="590" as="targetPoint"/>
                        <Array as="points">
                            <mxPoint x="1680" y="544"/>
                        </Array>
                    </mxGeometry>
                </mxCell>
                <mxCell id="fORnfv65RLHi70pDHR9z-19" style="edgeStyle=orthogonalEdgeStyle;rounded=0;jumpStyle=none;jumpSize=6;orthogonalLoop=1;jettySize=auto;html=1;entryX=0.5;entryY=0;entryDx=0;entryDy=0;startArrow=none;startFill=0;endArrow=classic;endFill=1;startSize=1;endSize=1;strokeColor=#000000;strokeWidth=4;" parent="1" edge="1">
                    <mxGeometry relative="1" as="geometry">
                        <mxPoint x="1590" y="896" as="sourcePoint"/>
                        <mxPoint x="1659.67" y="895.53" as="targetPoint"/>
                        <Array as="points">
                            <mxPoint x="1610.24" y="895.53"/>
                            <mxPoint x="1610.24" y="895.53"/>
                        </Array>
                    </mxGeometry>
                </mxCell>
                <mxCell id="fORnfv65RLHi70pDHR9z-20" value="&lt;font color=&quot;#990000&quot; style=&quot;font-size: 24px&quot;&gt;FΔ(0, t)&lt;/font&gt;" style="text;html=1;strokeColor=none;fillColor=none;align=center;verticalAlign=middle;whiteSpace=wrap;rounded=0;fontSize=24;fontColor=#97D077;" parent="1" vertex="1">
                    <mxGeometry x="1518" y="671" width="220.33" height="70" as="geometry"/>
                </mxCell>
                <mxCell id="fORnfv65RLHi70pDHR9z-21" style="edgeStyle=orthogonalEdgeStyle;rounded=0;jumpStyle=none;jumpSize=6;orthogonalLoop=1;jettySize=auto;html=1;startArrow=none;startFill=0;endArrow=classic;endFill=1;startSize=1;endSize=1;strokeColor=#000000;strokeWidth=4;entryX=0.5;entryY=0;entryDx=0;entryDy=0;" parent="1" source="fORnfv65RLHi70pDHR9z-22" target="fORnfv65RLHi70pDHR9z-26" edge="1">
                    <mxGeometry relative="1" as="geometry">
                        <mxPoint x="2290.66" y="803.5900000000001" as="targetPoint"/>
                        <Array as="points"/>
                    </mxGeometry>
                </mxCell>
                <mxCell id="fORnfv65RLHi70pDHR9z-22" value="" style="ellipse;whiteSpace=wrap;html=1;aspect=fixed;fillColor=#67AB9F;strokeWidth=4;strokeColor=#000000;" parent="1" vertex="1">
                    <mxGeometry x="2259.67" y="735.59" width="40" height="40" as="geometry"/>
                </mxCell>
                <mxCell id="fORnfv65RLHi70pDHR9z-23" value="" style="endArrow=none;html=1;rounded=0;strokeColor=#000000;strokeWidth=4;exitX=0;exitY=0;exitDx=0;exitDy=0;entryX=1;entryY=1;entryDx=0;entryDy=0;" parent="1" source="fORnfv65RLHi70pDHR9z-22" target="fORnfv65RLHi70pDHR9z-22" edge="1">
                    <mxGeometry width="50" height="50" relative="1" as="geometry">
                        <mxPoint x="2314.67" y="787.3400000000001" as="sourcePoint"/>
                        <mxPoint x="2339.67" y="756.0900000000001" as="targetPoint"/>
                    </mxGeometry>
                </mxCell>
                <mxCell id="fORnfv65RLHi70pDHR9z-24" value="" style="endArrow=none;html=1;rounded=0;strokeColor=#000000;strokeWidth=4;exitX=0;exitY=1;exitDx=0;exitDy=0;entryX=1;entryY=0;entryDx=0;entryDy=0;" parent="1" source="fORnfv65RLHi70pDHR9z-22" target="fORnfv65RLHi70pDHR9z-22" edge="1">
                    <mxGeometry width="50" height="50" relative="1" as="geometry">
                        <mxPoint x="2270.5278643762695" y="732.1623304703363" as="sourcePoint"/>
                        <mxPoint x="2298.981484117605" y="767.3034181196967" as="targetPoint"/>
                    </mxGeometry>
                </mxCell>
                <mxCell id="fORnfv65RLHi70pDHR9z-25" style="edgeStyle=orthogonalEdgeStyle;rounded=0;jumpStyle=none;jumpSize=6;orthogonalLoop=1;jettySize=auto;html=1;entryX=0;entryY=0.5;entryDx=0;entryDy=0;startArrow=none;startFill=0;endArrow=classic;endFill=1;startSize=1;endSize=1;strokeColor=#000000;strokeWidth=4;" parent="1" source="fORnfv65RLHi70pDHR9z-26" target="fORnfv65RLHi70pDHR9z-33" edge="1">
                    <mxGeometry relative="1" as="geometry"/>
                </mxCell>
                <mxCell id="fORnfv65RLHi70pDHR9z-26" value="" style="ellipse;whiteSpace=wrap;html=1;aspect=fixed;fillColor=#e1d5e7;strokeColor=#000000;strokeWidth=4;" parent="1" vertex="1">
                    <mxGeometry x="2259.67" y="873.5900000000001" width="40" height="40" as="geometry"/>
                </mxCell>
                <mxCell id="fORnfv65RLHi70pDHR9z-27" value="" style="endArrow=none;html=1;rounded=0;strokeColor=#000000;entryX=0.5;entryY=0;entryDx=0;entryDy=0;exitX=0.5;exitY=1;exitDx=0;exitDy=0;strokeWidth=4;" parent="1" source="fORnfv65RLHi70pDHR9z-26" target="fORnfv65RLHi70pDHR9z-26" edge="1">
                    <mxGeometry width="50" height="50" relative="1" as="geometry">
                        <mxPoint x="2259.67" y="828.0900000000001" as="sourcePoint"/>
                        <mxPoint x="2309.67" y="778.09" as="targetPoint"/>
                    </mxGeometry>
                </mxCell>
                <mxCell id="fORnfv65RLHi70pDHR9z-28" value="" style="endArrow=none;html=1;rounded=0;strokeColor=#000000;entryX=0;entryY=0.5;entryDx=0;entryDy=0;exitX=1;exitY=0.5;exitDx=0;exitDy=0;strokeWidth=4;" parent="1" source="fORnfv65RLHi70pDHR9z-26" target="fORnfv65RLHi70pDHR9z-26" edge="1">
                    <mxGeometry width="50" height="50" relative="1" as="geometry">
                        <mxPoint x="2309.67" y="728.09" as="sourcePoint"/>
                        <mxPoint x="2309.67" y="668.09" as="targetPoint"/>
                    </mxGeometry>
                </mxCell>
                <mxCell id="fORnfv65RLHi70pDHR9z-29" style="edgeStyle=orthogonalEdgeStyle;jumpStyle=none;jumpSize=6;orthogonalLoop=1;jettySize=auto;html=1;entryX=0;entryY=0.5;entryDx=0;entryDy=0;startArrow=none;startFill=0;endArrow=classic;endFill=1;startSize=1;endSize=1;strokeColor=#000000;strokeWidth=4;rounded=1;" parent="1" source="fORnfv65RLHi70pDHR9z-30" target="fORnfv65RLHi70pDHR9z-22" edge="1">
                    <mxGeometry relative="1" as="geometry">
                        <Array as="points">
                            <mxPoint x="2236" y="756"/>
                        </Array>
                    </mxGeometry>
                </mxCell>
                <mxCell id="fORnfv65RLHi70pDHR9z-30" value="" style="whiteSpace=wrap;html=1;aspect=fixed;fillColor=#dae8fc;strokeColor=#000000;strokeWidth=4;" parent="1" vertex="1">
                    <mxGeometry x="2222.17" y="777.8400000000001" width="27.5" height="27.5" as="geometry"/>
                </mxCell>
                <mxCell id="fORnfv65RLHi70pDHR9z-31" style="edgeStyle=orthogonalEdgeStyle;rounded=0;jumpStyle=none;jumpSize=6;orthogonalLoop=1;jettySize=auto;html=1;entryX=0.5;entryY=0;entryDx=0;entryDy=0;startArrow=none;startFill=0;endArrow=classic;endFill=1;startSize=1;endSize=1;strokeColor=#b85450;strokeWidth=4;fillColor=#f8cecc;" parent="1" target="fORnfv65RLHi70pDHR9z-22" edge="1">
                    <mxGeometry relative="1" as="geometry">
                        <mxPoint x="2279.285714285714" y="643.5899999999997" as="sourcePoint"/>
                    </mxGeometry>
                </mxCell>
                <mxCell id="fORnfv65RLHi70pDHR9z-32" style="edgeStyle=orthogonalEdgeStyle;rounded=0;jumpStyle=none;jumpSize=6;orthogonalLoop=1;jettySize=auto;html=1;startArrow=none;startFill=0;endArrow=classic;endFill=1;startSize=1;endSize=1;strokeColor=#000000;strokeWidth=4;" parent="1" source="fORnfv65RLHi70pDHR9z-33" edge="1">
                    <mxGeometry relative="1" as="geometry">
                        <Array as="points">
                            <mxPoint x="2349.6" y="893.5900000000001"/>
                        </Array>
                        <mxPoint x="2370" y="893.75" as="targetPoint"/>
                    </mxGeometry>
                </mxCell>
                <mxCell id="fORnfv65RLHi70pDHR9z-33" value="" style="rounded=0;whiteSpace=wrap;html=1;glass=0;strokeColor=#000000;strokeWidth=4;fillColor=#FFD966;" parent="1" vertex="1">
                    <mxGeometry x="2319.6" y="875.3400000000001" width="20" height="36" as="geometry"/>
                </mxCell>
                <mxCell id="fORnfv65RLHi70pDHR9z-34" value="" style="endArrow=none;html=1;rounded=0;startSize=1;endSize=1;strokeColor=#000000;strokeWidth=4;jumpStyle=none;jumpSize=6;" parent="1" edge="1">
                    <mxGeometry width="50" height="50" relative="1" as="geometry">
                        <mxPoint x="2319.6000000000004" y="911.8400000000001" as="sourcePoint"/>
                        <mxPoint x="2329.6000000000004" y="901.3400000000013" as="targetPoint"/>
                    </mxGeometry>
                </mxCell>
                <mxCell id="fORnfv65RLHi70pDHR9z-35" value="" style="endArrow=none;html=1;rounded=0;startSize=1;endSize=1;strokeColor=#000000;strokeWidth=4;jumpStyle=none;jumpSize=6;" parent="1" edge="1">
                    <mxGeometry width="50" height="50" relative="1" as="geometry">
                        <mxPoint x="2329.6000000000004" y="901.3400000000013" as="sourcePoint"/>
                        <mxPoint x="2339.6000000000004" y="911.3400000000013" as="targetPoint"/>
                    </mxGeometry>
                </mxCell>
                <mxCell id="fORnfv65RLHi70pDHR9z-36" value="&lt;span style=&quot;color: rgb(0 , 0 , 0) ; font-size: 30px&quot;&gt;Δ&lt;/span&gt;&lt;span style=&quot;font-size: 24px&quot;&gt;&lt;font color=&quot;#000000&quot;&gt;ᵢ&lt;/font&gt;&lt;/span&gt;" style="whiteSpace=wrap;html=1;aspect=fixed;fillColor=#FFD966;strokeColor=#000000;strokeWidth=4;fontColor=#ffffff;fontSize=30;" parent="1" vertex="1">
                    <mxGeometry x="2249.67" y="587.75" width="60" height="60" as="geometry"/>
                </mxCell>
                <mxCell id="fORnfv65RLHi70pDHR9z-37" style="edgeStyle=orthogonalEdgeStyle;rounded=0;jumpStyle=none;jumpSize=6;orthogonalLoop=1;jettySize=auto;html=1;entryX=0.5;entryY=0;entryDx=0;entryDy=0;startArrow=none;startFill=0;endArrow=classic;endFill=1;startSize=1;endSize=1;strokeColor=#0000FF;strokeWidth=4;fillColor=#d5e8d4;fontColor=#0000FF;" parent="1" edge="1">
                    <mxGeometry relative="1" as="geometry">
                        <mxPoint x="2279.9957142857147" y="495.74999999999955" as="sourcePoint"/>
                        <mxPoint x="2280.38" y="587.7500000000002" as="targetPoint"/>
                        <Array as="points">
                            <mxPoint x="2280" y="541.75"/>
                        </Array>
                    </mxGeometry>
                </mxCell>
                <mxCell id="fORnfv65RLHi70pDHR9z-38" style="edgeStyle=orthogonalEdgeStyle;rounded=0;jumpStyle=none;jumpSize=6;orthogonalLoop=1;jettySize=auto;html=1;entryX=0.5;entryY=0;entryDx=0;entryDy=0;startArrow=none;startFill=0;endArrow=classic;endFill=1;startSize=1;endSize=1;strokeColor=#000000;strokeWidth=4;" parent="1" edge="1">
                    <mxGeometry relative="1" as="geometry">
                        <mxPoint x="2190" y="893.75" as="sourcePoint"/>
                        <mxPoint x="2259.6699999999996" y="893.2799999999997" as="targetPoint"/>
                        <Array as="points">
                            <mxPoint x="2210.24" y="893.28"/>
                            <mxPoint x="2210.24" y="893.28"/>
                        </Array>
                    </mxGeometry>
                </mxCell>
                <mxCell id="fORnfv65RLHi70pDHR9z-39" style="edgeStyle=orthogonalEdgeStyle;rounded=0;jumpStyle=none;jumpSize=6;orthogonalLoop=1;jettySize=auto;html=1;startArrow=none;startFill=0;endArrow=classic;endFill=1;startSize=1;endSize=1;strokeColor=#000000;strokeWidth=4;entryX=0.5;entryY=0;entryDx=0;entryDy=0;" parent="1" source="fORnfv65RLHi70pDHR9z-40" target="fORnfv65RLHi70pDHR9z-44" edge="1">
                    <mxGeometry relative="1" as="geometry">
                        <mxPoint x="1910.6599999999999" y="805.8400000000001" as="targetPoint"/>
                        <Array as="points"/>
                    </mxGeometry>
                </mxCell>
                <mxCell id="fORnfv65RLHi70pDHR9z-40" value="" style="ellipse;whiteSpace=wrap;html=1;aspect=fixed;fillColor=#67AB9F;strokeWidth=4;strokeColor=#000000;" parent="1" vertex="1">
                    <mxGeometry x="1879.67" y="737.84" width="40" height="40" as="geometry"/>
                </mxCell>
                <mxCell id="fORnfv65RLHi70pDHR9z-41" value="" style="endArrow=none;html=1;rounded=0;strokeColor=#000000;strokeWidth=4;exitX=0;exitY=0;exitDx=0;exitDy=0;entryX=1;entryY=1;entryDx=0;entryDy=0;" parent="1" source="fORnfv65RLHi70pDHR9z-40" target="fORnfv65RLHi70pDHR9z-40" edge="1">
                    <mxGeometry width="50" height="50" relative="1" as="geometry">
                        <mxPoint x="1934.67" y="789.5900000000001" as="sourcePoint"/>
                        <mxPoint x="1959.67" y="758.3400000000001" as="targetPoint"/>
                    </mxGeometry>
                </mxCell>
                <mxCell id="fORnfv65RLHi70pDHR9z-42" value="" style="endArrow=none;html=1;rounded=0;strokeColor=#000000;strokeWidth=4;exitX=0;exitY=1;exitDx=0;exitDy=0;entryX=1;entryY=0;entryDx=0;entryDy=0;" parent="1" source="fORnfv65RLHi70pDHR9z-40" target="fORnfv65RLHi70pDHR9z-40" edge="1">
                    <mxGeometry width="50" height="50" relative="1" as="geometry">
                        <mxPoint x="1890.5278643762695" y="734.4123304703363" as="sourcePoint"/>
                        <mxPoint x="1918.9814841176049" y="769.5534181196967" as="targetPoint"/>
                    </mxGeometry>
                </mxCell>
                <mxCell id="fORnfv65RLHi70pDHR9z-43" style="edgeStyle=orthogonalEdgeStyle;rounded=0;jumpStyle=none;jumpSize=6;orthogonalLoop=1;jettySize=auto;html=1;entryX=0;entryY=0.5;entryDx=0;entryDy=0;startArrow=none;startFill=0;endArrow=classic;endFill=1;startSize=1;endSize=1;strokeColor=#000000;strokeWidth=4;" parent="1" source="fORnfv65RLHi70pDHR9z-44" target="fORnfv65RLHi70pDHR9z-51" edge="1">
                    <mxGeometry relative="1" as="geometry"/>
                </mxCell>
                <mxCell id="fORnfv65RLHi70pDHR9z-44" value="" style="ellipse;whiteSpace=wrap;html=1;aspect=fixed;fillColor=#e1d5e7;strokeColor=#000000;strokeWidth=4;" parent="1" vertex="1">
                    <mxGeometry x="1879.67" y="875.8400000000001" width="40" height="40" as="geometry"/>
                </mxCell>
                <mxCell id="fORnfv65RLHi70pDHR9z-45" value="" style="endArrow=none;html=1;rounded=0;strokeColor=#000000;entryX=0.5;entryY=0;entryDx=0;entryDy=0;exitX=0.5;exitY=1;exitDx=0;exitDy=0;strokeWidth=4;" parent="1" source="fORnfv65RLHi70pDHR9z-44" target="fORnfv65RLHi70pDHR9z-44" edge="1">
                    <mxGeometry width="50" height="50" relative="1" as="geometry">
                        <mxPoint x="1879.67" y="830.3400000000001" as="sourcePoint"/>
                        <mxPoint x="1929.67" y="780.34" as="targetPoint"/>
                    </mxGeometry>
                </mxCell>
                <mxCell id="fORnfv65RLHi70pDHR9z-46" value="" style="endArrow=none;html=1;rounded=0;strokeColor=#000000;entryX=0;entryY=0.5;entryDx=0;entryDy=0;exitX=1;exitY=0.5;exitDx=0;exitDy=0;strokeWidth=4;" parent="1" source="fORnfv65RLHi70pDHR9z-44" target="fORnfv65RLHi70pDHR9z-44" edge="1">
                    <mxGeometry width="50" height="50" relative="1" as="geometry">
                        <mxPoint x="1929.67" y="730.34" as="sourcePoint"/>
                        <mxPoint x="1929.67" y="670.34" as="targetPoint"/>
                    </mxGeometry>
                </mxCell>
                <mxCell id="fORnfv65RLHi70pDHR9z-47" style="edgeStyle=orthogonalEdgeStyle;jumpStyle=none;jumpSize=6;orthogonalLoop=1;jettySize=auto;html=1;entryX=0;entryY=0.5;entryDx=0;entryDy=0;startArrow=none;startFill=0;endArrow=classic;endFill=1;startSize=1;endSize=1;strokeColor=#000000;strokeWidth=4;rounded=1;" parent="1" source="fORnfv65RLHi70pDHR9z-48" target="fORnfv65RLHi70pDHR9z-40" edge="1">
                    <mxGeometry relative="1" as="geometry">
                        <Array as="points">
                            <mxPoint x="1856" y="758"/>
                        </Array>
                    </mxGeometry>
                </mxCell>
                <mxCell id="fORnfv65RLHi70pDHR9z-48" value="" style="whiteSpace=wrap;html=1;aspect=fixed;fillColor=#dae8fc;strokeColor=#000000;strokeWidth=4;" parent="1" vertex="1">
                    <mxGeometry x="1842.17" y="777.8400000000001" width="27.5" height="27.5" as="geometry"/>
                </mxCell>
                <mxCell id="fORnfv65RLHi70pDHR9z-49" style="edgeStyle=orthogonalEdgeStyle;rounded=0;jumpStyle=none;jumpSize=6;orthogonalLoop=1;jettySize=auto;html=1;entryX=0.5;entryY=0;entryDx=0;entryDy=0;startArrow=none;startFill=0;endArrow=classic;endFill=1;startSize=1;endSize=1;strokeColor=#b85450;strokeWidth=4;fillColor=#f8cecc;" parent="1" target="fORnfv65RLHi70pDHR9z-40" edge="1">
                    <mxGeometry relative="1" as="geometry">
                        <mxPoint x="1899.2857142857142" y="645.8399999999997" as="sourcePoint"/>
                    </mxGeometry>
                </mxCell>
                <mxCell id="fORnfv65RLHi70pDHR9z-50" style="edgeStyle=orthogonalEdgeStyle;rounded=0;jumpStyle=none;jumpSize=6;orthogonalLoop=1;jettySize=auto;html=1;startArrow=none;startFill=0;endArrow=classic;endFill=1;startSize=1;endSize=1;strokeColor=#000000;strokeWidth=4;" parent="1" source="fORnfv65RLHi70pDHR9z-51" edge="1">
                    <mxGeometry relative="1" as="geometry">
                        <Array as="points">
                            <mxPoint x="1969.6" y="895.8400000000001"/>
                        </Array>
                        <mxPoint x="2020" y="896" as="targetPoint"/>
                    </mxGeometry>
                </mxCell>
                <mxCell id="fORnfv65RLHi70pDHR9z-51" value="" style="rounded=0;whiteSpace=wrap;html=1;glass=0;strokeColor=#000000;strokeWidth=4;fillColor=#FFD966;" parent="1" vertex="1">
                    <mxGeometry x="1939.6" y="877.5900000000001" width="20" height="36" as="geometry"/>
                </mxCell>
                <mxCell id="fORnfv65RLHi70pDHR9z-52" value="" style="endArrow=none;html=1;rounded=0;startSize=1;endSize=1;strokeColor=#000000;strokeWidth=4;jumpStyle=none;jumpSize=6;" parent="1" edge="1">
                    <mxGeometry width="50" height="50" relative="1" as="geometry">
                        <mxPoint x="1939.6000000000004" y="914.0900000000004" as="sourcePoint"/>
                        <mxPoint x="1949.6000000000004" y="903.5900000000013" as="targetPoint"/>
                    </mxGeometry>
                </mxCell>
                <mxCell id="fORnfv65RLHi70pDHR9z-53" value="" style="endArrow=none;html=1;rounded=0;startSize=1;endSize=1;strokeColor=#000000;strokeWidth=4;jumpStyle=none;jumpSize=6;" parent="1" edge="1">
                    <mxGeometry width="50" height="50" relative="1" as="geometry">
                        <mxPoint x="1949.6000000000004" y="903.5900000000013" as="sourcePoint"/>
                        <mxPoint x="1959.6000000000004" y="913.5900000000013" as="targetPoint"/>
                    </mxGeometry>
                </mxCell>
                <mxCell id="fORnfv65RLHi70pDHR9z-54" value="F(1, t)" style="text;html=1;strokeColor=none;fillColor=none;align=center;verticalAlign=middle;whiteSpace=wrap;rounded=0;fontSize=24;fontColor=#0000FF;" parent="1" vertex="1">
                    <mxGeometry x="1759.2700000000004" y="480" width="190.33" height="30" as="geometry"/>
                </mxCell>
                <mxCell id="fORnfv65RLHi70pDHR9z-55" value="&lt;span style=&quot;color: rgb(0 , 0 , 0) ; font-size: 30px&quot;&gt;Δ&lt;/span&gt;&lt;font color=&quot;#000000&quot;&gt;₁&lt;/font&gt;" style="whiteSpace=wrap;html=1;aspect=fixed;fillColor=#FFD966;strokeColor=#000000;strokeWidth=4;fontColor=#ffffff;fontSize=30;" parent="1" vertex="1">
                    <mxGeometry x="1869.67" y="590" width="60" height="60" as="geometry"/>
                </mxCell>
                <mxCell id="fORnfv65RLHi70pDHR9z-56" style="edgeStyle=orthogonalEdgeStyle;rounded=0;jumpStyle=none;jumpSize=6;orthogonalLoop=1;jettySize=auto;html=1;entryX=0.5;entryY=0;entryDx=0;entryDy=0;startArrow=none;startFill=0;endArrow=classic;endFill=1;startSize=1;endSize=1;strokeColor=#0000FF;strokeWidth=4;fillColor=#d5e8d4;fontColor=#0000FF;" parent="1" edge="1">
                    <mxGeometry relative="1" as="geometry">
                        <mxPoint x="1899.9957142857147" y="497.9999999999993" as="sourcePoint"/>
                        <mxPoint x="1900.38" y="590" as="targetPoint"/>
                        <Array as="points">
                            <mxPoint x="1900" y="544"/>
                        </Array>
                    </mxGeometry>
                </mxCell>
                <mxCell id="fORnfv65RLHi70pDHR9z-57" value="" style="endArrow=none;dashed=1;html=1;dashPattern=1 3;strokeWidth=5;fontSize=100;curved=1;" parent="1" edge="1">
                    <mxGeometry width="50" height="50" relative="1" as="geometry">
                        <mxPoint x="2000" y="759.69" as="sourcePoint"/>
                        <mxPoint x="2170" y="759.69" as="targetPoint"/>
                    </mxGeometry>
                </mxCell>
                <mxCell id="fORnfv65RLHi70pDHR9z-58" value="&lt;font color=&quot;#990000&quot;&gt;FΔ(1, t)&lt;/font&gt;" style="text;html=1;strokeColor=none;fillColor=none;align=center;verticalAlign=middle;whiteSpace=wrap;rounded=0;fontSize=24;fontColor=#97D077;" parent="1" vertex="1">
                    <mxGeometry x="1745" y="671" width="220.33" height="70" as="geometry"/>
                </mxCell>
                <mxCell id="fORnfv65RLHi70pDHR9z-59" value="F(i, t)" style="text;html=1;strokeColor=none;fillColor=none;align=center;verticalAlign=middle;whiteSpace=wrap;rounded=0;fontSize=24;fontColor=#0000FF;" parent="1" vertex="1">
                    <mxGeometry x="2140.7500000000005" y="480" width="190.33" height="30" as="geometry"/>
                </mxCell>
                <mxCell id="fORnfv65RLHi70pDHR9z-60" value="&lt;font color=&quot;#990000&quot;&gt;&lt;font style=&quot;font-size: 24px&quot;&gt;FΔ&lt;/font&gt;&lt;font style=&quot;font-size: 24px&quot;&gt;(i,&amp;nbsp;&lt;/font&gt;&lt;font style=&quot;font-size: 24px&quot;&gt;t)&lt;/font&gt;&lt;/font&gt;" style="text;html=1;strokeColor=none;fillColor=none;align=center;verticalAlign=middle;whiteSpace=wrap;rounded=0;fontSize=24;fontColor=#97D077;" parent="1" vertex="1">
                    <mxGeometry x="2113" y="669" width="220.33" height="70" as="geometry"/>
                </mxCell>
                <mxCell id="fORnfv65RLHi70pDHR9z-61" value="0" style="rounded=0;whiteSpace=wrap;html=1;fontSize=17;strokeWidth=2;fontStyle=1;" parent="1" vertex="1">
                    <mxGeometry x="1772.1" y="140" width="29.58333333333333" height="32.5" as="geometry"/>
                </mxCell>
                <mxCell id="fORnfv65RLHi70pDHR9z-62" value="1" style="rounded=0;whiteSpace=wrap;html=1;fontSize=17;strokeWidth=2;fontStyle=1;" parent="1" vertex="1">
                    <mxGeometry x="1801.6833333333334" y="140" width="29.58333333333333" height="32.5" as="geometry"/>
                </mxCell>
                <mxCell id="fORnfv65RLHi70pDHR9z-63" value="2" style="rounded=0;whiteSpace=wrap;html=1;fontSize=17;strokeWidth=2;fontStyle=1;" parent="1" vertex="1">
                    <mxGeometry x="1801.6833333333334" y="172.5" width="29.58333333333333" height="32.5" as="geometry"/>
                </mxCell>
                <mxCell id="fORnfv65RLHi70pDHR9z-64" value="3" style="rounded=0;whiteSpace=wrap;html=1;fontSize=17;strokeWidth=2;fontStyle=1;" parent="1" vertex="1">
                    <mxGeometry x="1801.6833333333334" y="205" width="29.58333333333333" height="32.5" as="geometry"/>
                </mxCell>
                <mxCell id="fORnfv65RLHi70pDHR9z-65" value="4" style="rounded=0;whiteSpace=wrap;html=1;fontSize=17;strokeWidth=2;fontStyle=1;fillColor=#dae8fc;strokeColor=#000000;" parent="1" vertex="1">
                    <mxGeometry x="1801.6833333333334" y="237.5" width="29.58333333333333" height="32.5" as="geometry"/>
                </mxCell>
                <mxCell id="fORnfv65RLHi70pDHR9z-66" value="5" style="rounded=0;whiteSpace=wrap;html=1;fontSize=17;strokeWidth=2;fontStyle=1;" parent="1" vertex="1">
                    <mxGeometry x="1831.2666666666669" y="140" width="29.58333333333333" height="32.5" as="geometry"/>
                </mxCell>
                <mxCell id="fORnfv65RLHi70pDHR9z-67" value="6" style="rounded=0;whiteSpace=wrap;html=1;fontSize=17;strokeWidth=2;fontStyle=1;" parent="1" vertex="1">
                    <mxGeometry x="1860.85" y="140" width="29.58333333333333" height="32.5" as="geometry"/>
                </mxCell>
                <mxCell id="fORnfv65RLHi70pDHR9z-68" value="7" style="rounded=0;whiteSpace=wrap;html=1;fontSize=17;strokeWidth=2;fontStyle=1;" parent="1" vertex="1">
                    <mxGeometry x="1860.85" y="172.5" width="29.58333333333333" height="32.5" as="geometry"/>
                </mxCell>
                <mxCell id="fORnfv65RLHi70pDHR9z-69" value="8" style="rounded=0;whiteSpace=wrap;html=1;fontSize=17;strokeWidth=2;fontStyle=1;fillColor=#dae8fc;strokeColor=#000000;" parent="1" vertex="1">
                    <mxGeometry x="1860.85" y="205" width="29.58333333333333" height="32.5" as="geometry"/>
                </mxCell>
                <mxCell id="fORnfv65RLHi70pDHR9z-70" value="9" style="rounded=0;whiteSpace=wrap;html=1;fontSize=17;strokeWidth=2;fontStyle=1;fillColor=#dae8fc;strokeColor=#000000;" parent="1" vertex="1">
                    <mxGeometry x="1860.85" y="237.5" width="29.58333333333333" height="32.5" as="geometry"/>
                </mxCell>
                <mxCell id="fORnfv65RLHi70pDHR9z-71" value="1" style="rounded=0;whiteSpace=wrap;html=1;fontSize=17;strokeWidth=2;fontStyle=1;" parent="1" vertex="1">
                    <mxGeometry x="1772.1" y="172.5" width="29.58333333333333" height="32.5" as="geometry"/>
                </mxCell>
                <mxCell id="fORnfv65RLHi70pDHR9z-72" value="6" style="rounded=0;whiteSpace=wrap;html=1;fontSize=17;strokeWidth=2;fontStyle=1;" parent="1" vertex="1">
                    <mxGeometry x="1831.2666666666669" y="172.5" width="29.58333333333333" height="32.5" as="geometry"/>
                </mxCell>
                <mxCell id="fORnfv65RLHi70pDHR9z-73" value="2" style="rounded=0;whiteSpace=wrap;html=1;fontSize=17;strokeWidth=2;fontStyle=1;" parent="1" vertex="1">
                    <mxGeometry x="1772.1" y="205" width="29.58333333333333" height="32.5" as="geometry"/>
                </mxCell>
                <mxCell id="fORnfv65RLHi70pDHR9z-74" value="3" style="rounded=0;whiteSpace=wrap;html=1;fontSize=17;strokeWidth=2;fontStyle=1;fillColor=#dae8fc;strokeColor=#000000;" parent="1" vertex="1">
                    <mxGeometry x="1772.1" y="237.5" width="29.58333333333333" height="32.5" as="geometry"/>
                </mxCell>
                <mxCell id="fORnfv65RLHi70pDHR9z-75" value="7" style="rounded=0;whiteSpace=wrap;html=1;fontSize=17;strokeWidth=2;fontStyle=1;fillColor=#0000FF;strokeColor=#000000;" parent="1" vertex="1">
                    <mxGeometry x="1831.2666666666669" y="205" width="29.58333333333333" height="32.5" as="geometry"/>
                </mxCell>
                <mxCell id="fORnfv65RLHi70pDHR9z-76" value="8" style="rounded=0;whiteSpace=wrap;html=1;fontSize=17;strokeWidth=2;fontStyle=1;fillColor=#dae8fc;strokeColor=#000000;" parent="1" vertex="1">
                    <mxGeometry x="1831.2666666666669" y="237.5" width="29.58333333333333" height="32.5" as="geometry"/>
                </mxCell>
                <mxCell id="fORnfv65RLHi70pDHR9z-77" value="0" style="rounded=0;whiteSpace=wrap;html=1;fontSize=17;strokeWidth=2;fontStyle=1;" parent="1" vertex="1">
                    <mxGeometry x="1890.4333333333334" y="140" width="29.58333333333333" height="32.5" as="geometry"/>
                </mxCell>
                <mxCell id="fORnfv65RLHi70pDHR9z-78" value="1" style="rounded=0;whiteSpace=wrap;html=1;fontSize=17;strokeWidth=2;fontStyle=1;" parent="1" vertex="1">
                    <mxGeometry x="1920.0166666666664" y="140" width="29.58333333333333" height="32.5" as="geometry"/>
                </mxCell>
                <mxCell id="fORnfv65RLHi70pDHR9z-79" value="2" style="rounded=0;whiteSpace=wrap;html=1;fontSize=17;strokeWidth=2;fontStyle=1;" parent="1" vertex="1">
                    <mxGeometry x="1920.0166666666664" y="172.5" width="29.58333333333333" height="32.5" as="geometry"/>
                </mxCell>
                <mxCell id="fORnfv65RLHi70pDHR9z-80" value="3" style="rounded=0;whiteSpace=wrap;html=1;fontSize=17;strokeWidth=2;fontStyle=1;fillColor=#dae8fc;strokeColor=#000000;" parent="1" vertex="1">
                    <mxGeometry x="1920.0166666666664" y="205" width="29.58333333333333" height="32.5" as="geometry"/>
                </mxCell>
                <mxCell id="fORnfv65RLHi70pDHR9z-81" value="4" style="rounded=0;whiteSpace=wrap;html=1;fontSize=17;strokeWidth=2;fontStyle=1;fillColor=#dae8fc;strokeColor=#000000;" parent="1" vertex="1">
                    <mxGeometry x="1920.0166666666664" y="237.5" width="29.58333333333333" height="32.5" as="geometry"/>
                </mxCell>
                <mxCell id="fORnfv65RLHi70pDHR9z-82" value="5" style="rounded=0;whiteSpace=wrap;html=1;fontSize=17;strokeWidth=2;fontStyle=1;" parent="1" vertex="1">
                    <mxGeometry x="1949.6" y="140" width="29.58333333333333" height="32.5" as="geometry"/>
                </mxCell>
                <mxCell id="fORnfv65RLHi70pDHR9z-83" value="6" style="rounded=0;whiteSpace=wrap;html=1;fontSize=17;strokeWidth=2;fontStyle=1;" parent="1" vertex="1">
                    <mxGeometry x="1979.1833333333334" y="140" width="29.58333333333333" height="32.5" as="geometry"/>
                </mxCell>
                <mxCell id="fORnfv65RLHi70pDHR9z-84" value="7" style="rounded=0;whiteSpace=wrap;html=1;fontSize=17;strokeWidth=2;fontStyle=1;" parent="1" vertex="1">
                    <mxGeometry x="1979.1833333333334" y="172.5" width="29.58333333333333" height="32.5" as="geometry"/>
                </mxCell>
                <mxCell id="fORnfv65RLHi70pDHR9z-85" value="8" style="rounded=0;whiteSpace=wrap;html=1;fontSize=17;strokeWidth=2;fontStyle=1;fillColor=#dae8fc;strokeColor=#000000;" parent="1" vertex="1">
                    <mxGeometry x="1979.1833333333334" y="205" width="29.58333333333333" height="32.5" as="geometry"/>
                </mxCell>
                <mxCell id="fORnfv65RLHi70pDHR9z-86" value="9" style="rounded=0;whiteSpace=wrap;html=1;fontSize=17;strokeWidth=2;fontStyle=1;fillColor=#dae8fc;strokeColor=#000000;" parent="1" vertex="1">
                    <mxGeometry x="1979.1833333333334" y="237.5" width="29.58333333333333" height="32.5" as="geometry"/>
                </mxCell>
                <mxCell id="fORnfv65RLHi70pDHR9z-87" value="1" style="rounded=0;whiteSpace=wrap;html=1;fontSize=17;strokeWidth=2;fontStyle=1;" parent="1" vertex="1">
                    <mxGeometry x="1890.4333333333334" y="172.5" width="29.58333333333333" height="32.5" as="geometry"/>
                </mxCell>
                <mxCell id="fORnfv65RLHi70pDHR9z-88" value="6" style="rounded=0;whiteSpace=wrap;html=1;fontSize=17;strokeWidth=2;fontStyle=1;" parent="1" vertex="1">
                    <mxGeometry x="1949.6" y="172.5" width="29.58333333333333" height="32.5" as="geometry"/>
                </mxCell>
                <mxCell id="fORnfv65RLHi70pDHR9z-89" value="2" style="rounded=0;whiteSpace=wrap;html=1;fontSize=17;strokeWidth=2;fontStyle=1;fillColor=#dae8fc;strokeColor=#000000;" parent="1" vertex="1">
                    <mxGeometry x="1890.4333333333334" y="205" width="29.58333333333333" height="32.5" as="geometry"/>
                </mxCell>
                <mxCell id="fORnfv65RLHi70pDHR9z-90" value="3" style="rounded=0;whiteSpace=wrap;html=1;fontSize=17;strokeWidth=2;fontStyle=1;fillColor=#dae8fc;strokeColor=#000000;" parent="1" vertex="1">
                    <mxGeometry x="1890.4333333333334" y="237.5" width="29.58333333333333" height="32.5" as="geometry"/>
                </mxCell>
                <mxCell id="fORnfv65RLHi70pDHR9z-91" value="7" style="rounded=0;whiteSpace=wrap;html=1;fontSize=17;strokeWidth=2;fontStyle=1;fillColor=#dae8fc;strokeColor=#000000;" parent="1" vertex="1">
                    <mxGeometry x="1949.6" y="205" width="29.58333333333333" height="32.5" as="geometry"/>
                </mxCell>
                <mxCell id="fORnfv65RLHi70pDHR9z-92" value="8" style="rounded=0;whiteSpace=wrap;html=1;fontSize=17;strokeWidth=2;fontStyle=1;fillColor=#dae8fc;strokeColor=#000000;" parent="1" vertex="1">
                    <mxGeometry x="1949.6" y="237.5" width="29.58333333333333" height="32.5" as="geometry"/>
                </mxCell>
                <mxCell id="fORnfv65RLHi70pDHR9z-93" value="0" style="rounded=0;whiteSpace=wrap;html=1;fontSize=17;strokeWidth=2;fontStyle=1;" parent="1" vertex="1">
                    <mxGeometry x="2008.7666666666664" y="140" width="29.58333333333333" height="32.5" as="geometry"/>
                </mxCell>
                <mxCell id="fORnfv65RLHi70pDHR9z-94" value="1" style="rounded=0;whiteSpace=wrap;html=1;fontSize=17;strokeWidth=2;fontStyle=1;" parent="1" vertex="1">
                    <mxGeometry x="2038.35" y="140" width="29.58333333333333" height="32.5" as="geometry"/>
                </mxCell>
                <mxCell id="fORnfv65RLHi70pDHR9z-95" value="2" style="rounded=0;whiteSpace=wrap;html=1;fontSize=17;strokeWidth=2;fontStyle=1;" parent="1" vertex="1">
                    <mxGeometry x="2038.35" y="172.5" width="29.58333333333333" height="32.5" as="geometry"/>
                </mxCell>
                <mxCell id="fORnfv65RLHi70pDHR9z-96" value="3" style="rounded=0;whiteSpace=wrap;html=1;fontSize=17;strokeWidth=2;fontStyle=1;fillColor=#dae8fc;strokeColor=#000000;" parent="1" vertex="1">
                    <mxGeometry x="2038.35" y="205" width="29.58333333333333" height="32.5" as="geometry"/>
                </mxCell>
                <mxCell id="fORnfv65RLHi70pDHR9z-97" value="4" style="rounded=0;whiteSpace=wrap;html=1;fontSize=17;strokeWidth=2;fontStyle=1;fillColor=#dae8fc;strokeColor=#000000;" parent="1" vertex="1">
                    <mxGeometry x="2038.35" y="237.5" width="29.58333333333333" height="32.5" as="geometry"/>
                </mxCell>
                <mxCell id="fORnfv65RLHi70pDHR9z-98" value="5" style="rounded=0;whiteSpace=wrap;html=1;fontSize=17;strokeWidth=2;fontStyle=1;" parent="1" vertex="1">
                    <mxGeometry x="2067.9333333333334" y="140" width="29.58333333333333" height="32.5" as="geometry"/>
                </mxCell>
                <mxCell id="fORnfv65RLHi70pDHR9z-99" value="6" style="rounded=0;whiteSpace=wrap;html=1;fontSize=17;strokeWidth=2;fontStyle=1;" parent="1" vertex="1">
                    <mxGeometry x="2097.5166666666664" y="140" width="29.58333333333333" height="32.5" as="geometry"/>
                </mxCell>
                <mxCell id="fORnfv65RLHi70pDHR9z-100" value="7" style="rounded=0;whiteSpace=wrap;html=1;fontSize=17;strokeWidth=2;fontStyle=1;" parent="1" vertex="1">
                    <mxGeometry x="2097.5166666666664" y="172.5" width="29.58333333333333" height="32.5" as="geometry"/>
                </mxCell>
                <mxCell id="fORnfv65RLHi70pDHR9z-101" value="8" style="rounded=0;whiteSpace=wrap;html=1;fontSize=17;strokeWidth=2;fontStyle=1;fillColor=#dae8fc;strokeColor=#000000;" parent="1" vertex="1">
                    <mxGeometry x="2097.5166666666664" y="205" width="29.58333333333333" height="32.5" as="geometry"/>
                </mxCell>
                <mxCell id="fORnfv65RLHi70pDHR9z-102" value="9" style="rounded=0;whiteSpace=wrap;html=1;fontSize=17;strokeWidth=2;fontStyle=1;fillColor=#dae8fc;strokeColor=#000000;" parent="1" vertex="1">
                    <mxGeometry x="2097.5166666666664" y="237.5" width="29.58333333333333" height="32.5" as="geometry"/>
                </mxCell>
                <mxCell id="fORnfv65RLHi70pDHR9z-103" value="1" style="rounded=0;whiteSpace=wrap;html=1;fontSize=17;strokeWidth=2;fontStyle=1;" parent="1" vertex="1">
                    <mxGeometry x="2008.7666666666664" y="172.5" width="29.58333333333333" height="32.5" as="geometry"/>
                </mxCell>
                <mxCell id="fORnfv65RLHi70pDHR9z-104" value="6" style="rounded=0;whiteSpace=wrap;html=1;fontSize=17;strokeWidth=2;fontStyle=1;" parent="1" vertex="1">
                    <mxGeometry x="2067.9333333333334" y="172.5" width="29.58333333333333" height="32.5" as="geometry"/>
                </mxCell>
                <mxCell id="fORnfv65RLHi70pDHR9z-105" value="2" style="rounded=0;whiteSpace=wrap;html=1;fontSize=17;strokeWidth=2;fontStyle=1;fillColor=#dae8fc;strokeColor=#000000;" parent="1" vertex="1">
                    <mxGeometry x="2008.7666666666664" y="205" width="29.58333333333333" height="32.5" as="geometry"/>
                </mxCell>
                <mxCell id="fORnfv65RLHi70pDHR9z-106" value="3" style="rounded=0;whiteSpace=wrap;html=1;fontSize=17;strokeWidth=2;fontStyle=1;fillColor=#dae8fc;strokeColor=#000000;" parent="1" vertex="1">
                    <mxGeometry x="2008.7666666666664" y="237.5" width="29.58333333333333" height="32.5" as="geometry"/>
                </mxCell>
                <mxCell id="fORnfv65RLHi70pDHR9z-107" value="7" style="rounded=0;whiteSpace=wrap;html=1;fontSize=17;strokeWidth=2;fontStyle=1;fillColor=#dae8fc;strokeColor=#000000;" parent="1" vertex="1">
                    <mxGeometry x="2067.9333333333334" y="205" width="29.58333333333333" height="32.5" as="geometry"/>
                </mxCell>
                <mxCell id="fORnfv65RLHi70pDHR9z-108" value="8" style="rounded=0;whiteSpace=wrap;html=1;fontSize=17;strokeWidth=2;fontStyle=1;fillColor=#dae8fc;strokeColor=#000000;" parent="1" vertex="1">
                    <mxGeometry x="2067.9333333333334" y="237.5" width="29.58333333333333" height="32.5" as="geometry"/>
                </mxCell>
                <mxCell id="fORnfv65RLHi70pDHR9z-109" value="5" style="rounded=0;whiteSpace=wrap;html=1;fontSize=17;strokeWidth=2;fontStyle=1;fillColor=#dae8fc;strokeColor=#000000;" parent="1" vertex="1">
                    <mxGeometry x="1772.1" y="270" width="29.58333333333333" height="32.5" as="geometry"/>
                </mxCell>
                <mxCell id="fORnfv65RLHi70pDHR9z-110" value="6" style="rounded=0;whiteSpace=wrap;html=1;fontSize=17;strokeWidth=2;fontStyle=1;fillColor=#dae8fc;strokeColor=#000000;" parent="1" vertex="1">
                    <mxGeometry x="1801.6833333333334" y="270" width="29.58333333333333" height="32.5" as="geometry"/>
                </mxCell>
                <mxCell id="fORnfv65RLHi70pDHR9z-111" value="7" style="rounded=0;whiteSpace=wrap;html=1;fontSize=17;strokeWidth=2;fontStyle=1;fillColor=#dae8fc;strokeColor=#000000;" parent="1" vertex="1">
                    <mxGeometry x="1801.6833333333334" y="302.5" width="29.58333333333333" height="32.5" as="geometry"/>
                </mxCell>
                <mxCell id="fORnfv65RLHi70pDHR9z-112" value="8" style="rounded=0;whiteSpace=wrap;html=1;fontSize=17;strokeWidth=2;fontStyle=1;fillColor=#dae8fc;strokeColor=#000000;" parent="1" vertex="1">
                    <mxGeometry x="1801.6833333333334" y="335" width="29.58333333333333" height="32.5" as="geometry"/>
                </mxCell>
                <mxCell id="fORnfv65RLHi70pDHR9z-113" value="9" style="rounded=0;whiteSpace=wrap;html=1;fontSize=17;strokeWidth=2;fontStyle=1;fillColor=#dae8fc;strokeColor=#000000;" parent="1" vertex="1">
                    <mxGeometry x="1801.6833333333334" y="367.5" width="29.58333333333333" height="32.5" as="geometry"/>
                </mxCell>
                <mxCell id="fORnfv65RLHi70pDHR9z-114" value="6" style="rounded=0;whiteSpace=wrap;html=1;fontSize=17;strokeWidth=2;fontStyle=1;fillColor=#dae8fc;strokeColor=#000000;" parent="1" vertex="1">
                    <mxGeometry x="1772.1" y="302.5" width="29.58333333333333" height="32.5" as="geometry"/>
                </mxCell>
                <mxCell id="fORnfv65RLHi70pDHR9z-115" value="7" style="rounded=0;whiteSpace=wrap;html=1;fontSize=17;strokeWidth=2;fontStyle=1;fillColor=#dae8fc;strokeColor=#000000;" parent="1" vertex="1">
                    <mxGeometry x="1772.1" y="335" width="29.58333333333333" height="32.5" as="geometry"/>
                </mxCell>
                <mxCell id="fORnfv65RLHi70pDHR9z-116" value="8" style="rounded=0;whiteSpace=wrap;html=1;fontSize=17;strokeWidth=2;fontStyle=1;fillColor=#dae8fc;strokeColor=#000000;" parent="1" vertex="1">
                    <mxGeometry x="1772.1" y="367.5" width="29.58333333333333" height="32.5" as="geometry"/>
                </mxCell>
                <mxCell id="fORnfv65RLHi70pDHR9z-117" value="10" style="rounded=0;whiteSpace=wrap;html=1;fontSize=17;strokeWidth=2;fontStyle=1;fillColor=#dae8fc;strokeColor=#000000;" parent="1" vertex="1">
                    <mxGeometry x="1831.2666666666669" y="270" width="29.58333333333333" height="32.5" as="geometry"/>
                </mxCell>
                <mxCell id="fORnfv65RLHi70pDHR9z-118" value="11" style="rounded=0;whiteSpace=wrap;html=1;fontSize=17;strokeWidth=2;fontStyle=1;fillColor=#dae8fc;strokeColor=#000000;" parent="1" vertex="1">
                    <mxGeometry x="1831.2666666666669" y="302.5" width="29.58333333333333" height="32.5" as="geometry"/>
                </mxCell>
                <mxCell id="fORnfv65RLHi70pDHR9z-119" value="12" style="rounded=0;whiteSpace=wrap;html=1;fontSize=17;strokeWidth=2;fontStyle=1;fillColor=#dae8fc;strokeColor=#000000;" parent="1" vertex="1">
                    <mxGeometry x="1831.2666666666669" y="335" width="29.58333333333333" height="32.5" as="geometry"/>
                </mxCell>
                <mxCell id="fORnfv65RLHi70pDHR9z-120" value="13" style="rounded=0;whiteSpace=wrap;html=1;fontSize=17;strokeWidth=2;fontStyle=1;fillColor=#dae8fc;strokeColor=#000000;" parent="1" vertex="1">
                    <mxGeometry x="1831.2666666666669" y="367.5" width="29.58333333333333" height="32.5" as="geometry"/>
                </mxCell>
                <mxCell id="fORnfv65RLHi70pDHR9z-121" value="14" style="rounded=0;whiteSpace=wrap;html=1;fontSize=17;strokeWidth=2;fontStyle=1;fillColor=#dae8fc;strokeColor=#000000;" parent="1" vertex="1">
                    <mxGeometry x="1860.85" y="367.5" width="29.58333333333333" height="32.5" as="geometry"/>
                </mxCell>
                <mxCell id="fORnfv65RLHi70pDHR9z-122" value="11" style="rounded=0;whiteSpace=wrap;html=1;fontSize=17;strokeWidth=2;fontStyle=1;fillColor=#dae8fc;strokeColor=#000000;" parent="1" vertex="1">
                    <mxGeometry x="1860.85" y="270" width="29.58333333333333" height="32.5" as="geometry"/>
                </mxCell>
                <mxCell id="fORnfv65RLHi70pDHR9z-123" value="12" style="rounded=0;whiteSpace=wrap;html=1;fontSize=17;strokeWidth=2;fontStyle=1;fillColor=#dae8fc;strokeColor=#000000;" parent="1" vertex="1">
                    <mxGeometry x="1860.85" y="302.5" width="29.58333333333333" height="32.5" as="geometry"/>
                </mxCell>
                <mxCell id="fORnfv65RLHi70pDHR9z-124" value="13" style="rounded=0;whiteSpace=wrap;html=1;fontSize=17;strokeWidth=2;fontStyle=1;fillColor=#dae8fc;strokeColor=#000000;" parent="1" vertex="1">
                    <mxGeometry x="1860.85" y="335" width="29.58333333333333" height="32.5" as="geometry"/>
                </mxCell>
                <mxCell id="fORnfv65RLHi70pDHR9z-125" value="5" style="rounded=0;whiteSpace=wrap;html=1;fontSize=17;strokeWidth=2;fontStyle=1;fillColor=#dae8fc;strokeColor=#000000;" parent="1" vertex="1">
                    <mxGeometry x="1890.4333333333334" y="270" width="29.58333333333333" height="32.5" as="geometry"/>
                </mxCell>
                <mxCell id="fORnfv65RLHi70pDHR9z-126" value="6" style="rounded=0;whiteSpace=wrap;html=1;fontSize=17;strokeWidth=2;fontStyle=1;fillColor=#dae8fc;strokeColor=#000000;" parent="1" vertex="1">
                    <mxGeometry x="1920.0166666666664" y="270" width="29.58333333333333" height="32.5" as="geometry"/>
                </mxCell>
                <mxCell id="fORnfv65RLHi70pDHR9z-127" value="7" style="rounded=0;whiteSpace=wrap;html=1;fontSize=17;strokeWidth=2;fontStyle=1;fillColor=#dae8fc;strokeColor=#000000;" parent="1" vertex="1">
                    <mxGeometry x="1920.0166666666664" y="302.5" width="29.58333333333333" height="32.5" as="geometry"/>
                </mxCell>
                <mxCell id="fORnfv65RLHi70pDHR9z-128" value="8" style="rounded=0;whiteSpace=wrap;html=1;fontSize=17;strokeWidth=2;fontStyle=1;fillColor=#dae8fc;strokeColor=#000000;" parent="1" vertex="1">
                    <mxGeometry x="1920.0166666666664" y="335" width="29.58333333333333" height="32.5" as="geometry"/>
                </mxCell>
                <mxCell id="fORnfv65RLHi70pDHR9z-129" value="9" style="rounded=0;whiteSpace=wrap;html=1;fontSize=17;strokeWidth=2;fontStyle=1;fillColor=#dae8fc;strokeColor=#000000;" parent="1" vertex="1">
                    <mxGeometry x="1920.0166666666664" y="367.5" width="29.58333333333333" height="32.5" as="geometry"/>
                </mxCell>
                <mxCell id="fORnfv65RLHi70pDHR9z-130" value="6" style="rounded=0;whiteSpace=wrap;html=1;fontSize=17;strokeWidth=2;fontStyle=1;fillColor=#dae8fc;strokeColor=#000000;" parent="1" vertex="1">
                    <mxGeometry x="1890.4333333333334" y="302.5" width="29.58333333333333" height="32.5" as="geometry"/>
                </mxCell>
                <mxCell id="fORnfv65RLHi70pDHR9z-131" value="7" style="rounded=0;whiteSpace=wrap;html=1;fontSize=17;strokeWidth=2;fontStyle=1;fillColor=#dae8fc;strokeColor=#000000;" parent="1" vertex="1">
                    <mxGeometry x="1890.4333333333334" y="335" width="29.58333333333333" height="32.5" as="geometry"/>
                </mxCell>
                <mxCell id="fORnfv65RLHi70pDHR9z-132" value="8" style="rounded=0;whiteSpace=wrap;html=1;fontSize=17;strokeWidth=2;fontStyle=1;fillColor=#dae8fc;strokeColor=#000000;" parent="1" vertex="1">
                    <mxGeometry x="1890.4333333333334" y="367.5" width="29.58333333333333" height="32.5" as="geometry"/>
                </mxCell>
                <mxCell id="fORnfv65RLHi70pDHR9z-133" value="10" style="rounded=0;whiteSpace=wrap;html=1;fontSize=17;strokeWidth=2;fontStyle=1;fillColor=#dae8fc;strokeColor=#000000;" parent="1" vertex="1">
                    <mxGeometry x="1949.6" y="270" width="29.58333333333333" height="32.5" as="geometry"/>
                </mxCell>
                <mxCell id="fORnfv65RLHi70pDHR9z-134" value="11" style="rounded=0;whiteSpace=wrap;html=1;fontSize=17;strokeWidth=2;fontStyle=1;fillColor=#dae8fc;strokeColor=#000000;" parent="1" vertex="1">
                    <mxGeometry x="1949.6" y="302.5" width="29.58333333333333" height="32.5" as="geometry"/>
                </mxCell>
                <mxCell id="fORnfv65RLHi70pDHR9z-135" value="12" style="rounded=0;whiteSpace=wrap;html=1;fontSize=17;strokeWidth=2;fontStyle=1;fillColor=#dae8fc;strokeColor=#000000;" parent="1" vertex="1">
                    <mxGeometry x="1949.6" y="335" width="29.58333333333333" height="32.5" as="geometry"/>
                </mxCell>
                <mxCell id="fORnfv65RLHi70pDHR9z-136" value="13" style="rounded=0;whiteSpace=wrap;html=1;fontSize=17;strokeWidth=2;fontStyle=1;fillColor=#dae8fc;strokeColor=#000000;" parent="1" vertex="1">
                    <mxGeometry x="1949.6" y="367.5" width="29.58333333333333" height="32.5" as="geometry"/>
                </mxCell>
                <mxCell id="fORnfv65RLHi70pDHR9z-137" value="14" style="rounded=0;whiteSpace=wrap;html=1;fontSize=17;strokeWidth=2;fontStyle=1;fillColor=#dae8fc;strokeColor=#000000;" parent="1" vertex="1">
                    <mxGeometry x="1979.1833333333334" y="367.5" width="29.58333333333333" height="32.5" as="geometry"/>
                </mxCell>
                <mxCell id="fORnfv65RLHi70pDHR9z-138" value="11" style="rounded=0;whiteSpace=wrap;html=1;fontSize=17;strokeWidth=2;fontStyle=1;fillColor=#dae8fc;strokeColor=#000000;" parent="1" vertex="1">
                    <mxGeometry x="1979.1833333333334" y="270" width="29.58333333333333" height="32.5" as="geometry"/>
                </mxCell>
                <mxCell id="fORnfv65RLHi70pDHR9z-139" value="12" style="rounded=0;whiteSpace=wrap;html=1;fontSize=17;strokeWidth=2;fontStyle=1;fillColor=#dae8fc;strokeColor=#000000;" parent="1" vertex="1">
                    <mxGeometry x="1979.1833333333334" y="302.5" width="29.58333333333333" height="32.5" as="geometry"/>
                </mxCell>
                <mxCell id="fORnfv65RLHi70pDHR9z-140" value="13" style="rounded=0;whiteSpace=wrap;html=1;fontSize=17;strokeWidth=2;fontStyle=1;fillColor=#dae8fc;strokeColor=#000000;" parent="1" vertex="1">
                    <mxGeometry x="1979.1833333333334" y="335" width="29.58333333333333" height="32.5" as="geometry"/>
                </mxCell>
                <mxCell id="fORnfv65RLHi70pDHR9z-141" value="5" style="rounded=0;whiteSpace=wrap;html=1;fontSize=17;strokeWidth=2;fontStyle=1;fillColor=#dae8fc;strokeColor=#000000;" parent="1" vertex="1">
                    <mxGeometry x="2008.7666666666664" y="270" width="29.58333333333333" height="32.5" as="geometry"/>
                </mxCell>
                <mxCell id="fORnfv65RLHi70pDHR9z-142" value="6" style="rounded=0;whiteSpace=wrap;html=1;fontSize=17;strokeWidth=2;fontStyle=1;fillColor=#dae8fc;strokeColor=#000000;" parent="1" vertex="1">
                    <mxGeometry x="2038.35" y="270" width="29.58333333333333" height="32.5" as="geometry"/>
                </mxCell>
                <mxCell id="fORnfv65RLHi70pDHR9z-143" value="7" style="rounded=0;whiteSpace=wrap;html=1;fontSize=17;strokeWidth=2;fontStyle=1;fillColor=#dae8fc;strokeColor=#000000;" parent="1" vertex="1">
                    <mxGeometry x="2038.35" y="302.5" width="29.58333333333333" height="32.5" as="geometry"/>
                </mxCell>
                <mxCell id="fORnfv65RLHi70pDHR9z-144" value="8" style="rounded=0;whiteSpace=wrap;html=1;fontSize=17;strokeWidth=2;fontStyle=1;fillColor=#dae8fc;strokeColor=#000000;" parent="1" vertex="1">
                    <mxGeometry x="2038.35" y="335" width="29.58333333333333" height="32.5" as="geometry"/>
                </mxCell>
                <mxCell id="fORnfv65RLHi70pDHR9z-145" value="9" style="rounded=0;whiteSpace=wrap;html=1;fontSize=17;strokeWidth=2;fontStyle=1;fillColor=#dae8fc;strokeColor=#000000;" parent="1" vertex="1">
                    <mxGeometry x="2038.35" y="367.5" width="29.58333333333333" height="32.5" as="geometry"/>
                </mxCell>
                <mxCell id="fORnfv65RLHi70pDHR9z-146" value="6" style="rounded=0;whiteSpace=wrap;html=1;fontSize=17;strokeWidth=2;fontStyle=1;fillColor=#dae8fc;strokeColor=#000000;" parent="1" vertex="1">
                    <mxGeometry x="2008.7666666666664" y="302.5" width="29.58333333333333" height="32.5" as="geometry"/>
                </mxCell>
                <mxCell id="fORnfv65RLHi70pDHR9z-147" value="7" style="rounded=0;whiteSpace=wrap;html=1;fontSize=17;strokeWidth=2;fontStyle=1;fillColor=#dae8fc;strokeColor=#000000;" parent="1" vertex="1">
                    <mxGeometry x="2008.7666666666664" y="335" width="29.58333333333333" height="32.5" as="geometry"/>
                </mxCell>
                <mxCell id="fORnfv65RLHi70pDHR9z-148" value="8" style="rounded=0;whiteSpace=wrap;html=1;fontSize=17;strokeWidth=2;fontStyle=1;fillColor=#dae8fc;strokeColor=#000000;" parent="1" vertex="1">
                    <mxGeometry x="2008.7666666666664" y="367.5" width="29.58333333333333" height="32.5" as="geometry"/>
                </mxCell>
                <mxCell id="fORnfv65RLHi70pDHR9z-149" value="10" style="rounded=0;whiteSpace=wrap;html=1;fontSize=17;strokeWidth=2;fontStyle=1;fillColor=#dae8fc;strokeColor=#000000;" parent="1" vertex="1">
                    <mxGeometry x="2067.9333333333334" y="270" width="29.58333333333333" height="32.5" as="geometry"/>
                </mxCell>
                <mxCell id="fORnfv65RLHi70pDHR9z-150" value="11" style="rounded=0;whiteSpace=wrap;html=1;fontSize=17;strokeWidth=2;fontStyle=1;fillColor=#dae8fc;strokeColor=#000000;" parent="1" vertex="1">
                    <mxGeometry x="2067.9333333333334" y="302.5" width="29.58333333333333" height="32.5" as="geometry"/>
                </mxCell>
                <mxCell id="fORnfv65RLHi70pDHR9z-151" value="12" style="rounded=0;whiteSpace=wrap;html=1;fontSize=17;strokeWidth=2;fontStyle=1;fillColor=#dae8fc;strokeColor=#000000;" parent="1" vertex="1">
                    <mxGeometry x="2067.9333333333334" y="335" width="29.58333333333333" height="32.5" as="geometry"/>
                </mxCell>
                <mxCell id="fORnfv65RLHi70pDHR9z-152" value="13" style="rounded=0;whiteSpace=wrap;html=1;fontSize=17;strokeWidth=2;fontStyle=1;fillColor=#dae8fc;strokeColor=#000000;" parent="1" vertex="1">
                    <mxGeometry x="2067.9333333333334" y="367.5" width="29.58333333333333" height="32.5" as="geometry"/>
                </mxCell>
                <mxCell id="fORnfv65RLHi70pDHR9z-153" value="14" style="rounded=0;whiteSpace=wrap;html=1;fontSize=17;strokeWidth=2;fontStyle=1;fillColor=#0000FF;strokeColor=#000000;" parent="1" vertex="1">
                    <mxGeometry x="2097.5166666666664" y="367.5" width="29.58333333333333" height="32.5" as="geometry"/>
                </mxCell>
                <mxCell id="fORnfv65RLHi70pDHR9z-154" value="11" style="rounded=0;whiteSpace=wrap;html=1;fontSize=17;strokeWidth=2;fontStyle=1;fillColor=#dae8fc;strokeColor=#000000;" parent="1" vertex="1">
                    <mxGeometry x="2097.5166666666664" y="270" width="29.58333333333333" height="32.5" as="geometry"/>
                </mxCell>
                <mxCell id="fORnfv65RLHi70pDHR9z-155" value="12" style="rounded=0;whiteSpace=wrap;html=1;fontSize=17;strokeWidth=2;fontStyle=1;fillColor=#dae8fc;strokeColor=#000000;" parent="1" vertex="1">
                    <mxGeometry x="2097.5166666666664" y="302.5" width="29.58333333333333" height="32.5" as="geometry"/>
                </mxCell>
                <mxCell id="fORnfv65RLHi70pDHR9z-156" value="13" style="rounded=0;whiteSpace=wrap;html=1;fontSize=17;strokeWidth=2;fontStyle=1;fillColor=#dae8fc;strokeColor=#000000;" parent="1" vertex="1">
                    <mxGeometry x="2097.5166666666664" y="335" width="29.58333333333333" height="32.5" as="geometry"/>
                </mxCell>
                <mxCell id="fORnfv65RLHi70pDHR9z-157" style="edgeStyle=none;rounded=0;jumpStyle=none;jumpSize=6;orthogonalLoop=1;jettySize=auto;html=1;exitX=0;exitY=0.75;exitDx=0;exitDy=0;entryX=1;entryY=0.75;entryDx=0;entryDy=0;dashed=1;fontSize=17;fontColor=#000000;startArrow=none;startFill=0;endArrow=classic;endFill=1;startSize=1;endSize=4;strokeWidth=2;fillColor=#dae8fc;strokeColor=#000000;" parent="1" source="fORnfv65RLHi70pDHR9z-75" target="fORnfv65RLHi70pDHR9z-101" edge="1">
                    <mxGeometry relative="1" as="geometry"/>
                </mxCell>
                <mxCell id="fORnfv65RLHi70pDHR9z-158" style="edgeStyle=none;rounded=0;jumpStyle=none;jumpSize=6;orthogonalLoop=1;jettySize=auto;html=1;exitX=0;exitY=0.75;exitDx=0;exitDy=0;entryX=1;entryY=0.75;entryDx=0;entryDy=0;dashed=1;fontSize=17;fontColor=#000000;startArrow=none;startFill=0;endArrow=classic;endFill=1;startSize=1;endSize=4;strokeWidth=2;fillColor=#dae8fc;strokeColor=#000000;" parent="1" source="fORnfv65RLHi70pDHR9z-74" target="fORnfv65RLHi70pDHR9z-102" edge="1">
                    <mxGeometry relative="1" as="geometry">
                        <mxPoint x="1772.1" y="253.55499999999995" as="sourcePoint"/>
                        <mxPoint x="2127.1" y="253.55499999999995" as="targetPoint"/>
                    </mxGeometry>
                </mxCell>
                <mxCell id="fORnfv65RLHi70pDHR9z-159" style="edgeStyle=none;rounded=0;jumpStyle=none;jumpSize=6;orthogonalLoop=1;jettySize=auto;html=1;exitX=0;exitY=0.75;exitDx=0;exitDy=0;entryX=1;entryY=0.75;entryDx=0;entryDy=0;dashed=1;fontSize=17;fontColor=#000000;startArrow=none;startFill=0;endArrow=classic;endFill=1;startSize=1;endSize=4;strokeWidth=2;fillColor=#dae8fc;strokeColor=#000000;" parent="1" source="fORnfv65RLHi70pDHR9z-109" target="fORnfv65RLHi70pDHR9z-154" edge="1">
                    <mxGeometry relative="1" as="geometry">
                        <mxPoint x="1786.8916666666669" y="278.125" as="sourcePoint"/>
                        <mxPoint x="2141.8916666666664" y="278.125" as="targetPoint"/>
                    </mxGeometry>
                </mxCell>
                <mxCell id="fORnfv65RLHi70pDHR9z-160" style="edgeStyle=none;rounded=0;jumpStyle=none;jumpSize=6;orthogonalLoop=1;jettySize=auto;html=1;exitX=0;exitY=0.75;exitDx=0;exitDy=0;entryX=1;entryY=0.75;entryDx=0;entryDy=0;dashed=1;fontSize=17;fontColor=#000000;startArrow=none;startFill=0;endArrow=classic;endFill=1;startSize=1;endSize=4;strokeWidth=2;fillColor=#dae8fc;strokeColor=#000000;" parent="1" source="fORnfv65RLHi70pDHR9z-114" target="fORnfv65RLHi70pDHR9z-155" edge="1">
                    <mxGeometry relative="1" as="geometry">
                        <mxPoint x="1786.8916666666669" y="310.625" as="sourcePoint"/>
                        <mxPoint x="2141.8916666666664" y="310.625" as="targetPoint"/>
                    </mxGeometry>
                </mxCell>
                <mxCell id="fORnfv65RLHi70pDHR9z-161" style="edgeStyle=none;rounded=0;jumpStyle=none;jumpSize=6;orthogonalLoop=1;jettySize=auto;html=1;exitX=0;exitY=0.75;exitDx=0;exitDy=0;entryX=1;entryY=0.75;entryDx=0;entryDy=0;dashed=1;fontSize=17;fontColor=#000000;startArrow=none;startFill=0;endArrow=classic;endFill=1;startSize=1;endSize=4;strokeWidth=2;fillColor=#dae8fc;strokeColor=#000000;" parent="1" source="fORnfv65RLHi70pDHR9z-115" target="fORnfv65RLHi70pDHR9z-156" edge="1">
                    <mxGeometry relative="1" as="geometry">
                        <mxPoint x="1772.1" y="351.05499999999995" as="sourcePoint"/>
                        <mxPoint x="2127.1" y="351.05499999999995" as="targetPoint"/>
                    </mxGeometry>
                </mxCell>
                <mxCell id="fORnfv65RLHi70pDHR9z-162" style="edgeStyle=none;rounded=0;jumpStyle=none;jumpSize=6;orthogonalLoop=1;jettySize=auto;html=1;exitX=0;exitY=0.75;exitDx=0;exitDy=0;entryX=0;entryY=0.75;entryDx=0;entryDy=0;dashed=1;fontSize=17;fontColor=#000000;startArrow=none;startFill=0;endArrow=classic;endFill=1;startSize=1;endSize=4;strokeWidth=2;fillColor=#dae8fc;strokeColor=#000000;" parent="1" source="fORnfv65RLHi70pDHR9z-116" target="fORnfv65RLHi70pDHR9z-153" edge="1">
                    <mxGeometry relative="1" as="geometry">
                        <mxPoint x="1786.8916666666669" y="375.625" as="sourcePoint"/>
                        <mxPoint x="2141.8916666666664" y="375.625" as="targetPoint"/>
                    </mxGeometry>
                </mxCell>
                <mxCell id="fORnfv65RLHi70pDHR9z-163" value="" style="rounded=0;whiteSpace=wrap;html=1;fontSize=17;fontColor=#0000FF;fillColor=none;strokeWidth=2;strokeColor=#0000FF;" parent="1" vertex="1">
                    <mxGeometry x="1772.1" y="140" width="88.9" height="97" as="geometry"/>
                </mxCell>
                <mxCell id="fORnfv65RLHi70pDHR9z-164" value="InitialOffset" style="text;html=1;strokeColor=none;fillColor=none;align=center;verticalAlign=middle;whiteSpace=wrap;rounded=0;fontSize=17;fontColor=#0000FF;" parent="1" vertex="1">
                    <mxGeometry x="1786.48" y="109" width="60" height="30" as="geometry"/>
                </mxCell>
                <mxCell id="fORnfv65RLHi70pDHR9z-165" value="StreamSize" style="text;html=1;strokeColor=none;fillColor=none;align=center;verticalAlign=middle;whiteSpace=wrap;rounded=0;fontSize=17;fontColor=#0000FF;" parent="1" vertex="1">
                    <mxGeometry x="2171" y="288" width="60" height="30" as="geometry"/>
                </mxCell>
                <mxCell id="fORnfv65RLHi70pDHR9z-166" value="" style="shape=curlyBracket;whiteSpace=wrap;html=1;rounded=1;flipH=1;fontSize=17;fontColor=#0000FF;strokeColor=#767FFC;strokeWidth=2;fillColor=none;" parent="1" vertex="1">
                    <mxGeometry x="2132" y="210" width="20" height="186" as="geometry"/>
                </mxCell>
            </root>
        </mxGraphModel>
    </diagram>
</mxfile>